<svg width="45" height="25" viewBox="0 0 45 25" fill="none" xmlns="http://www.w3.org/2000/svg">
<rect x="1.09278e-06" y="3.87436e-06" width="45" height="25" rx="12.5" fill="#2D2D2D"/>
<path d="M21.6246 10.3125V15.3125C21.6246 15.485 21.4846 15.625 21.3121 15.625C21.1395 15.625 20.9996 15.485 20.9996 15.3125V10.3125C20.9996 10.14 21.1395 10 21.3121 10C21.4846 10 21.6246 10.14 21.6246 10.3125Z" fill="white"/>
<path d="M24.6246 10.3125V15.3125C24.6246 15.485 24.4846 15.625 24.3121 15.625C24.1395 15.625 23.9996 15.485 23.9996 15.3125V10.3125C23.9996 10.14 24.1395 10 24.3121 10C24.4846 10 24.6246 10.14 24.6246 10.3125Z" fill="white"/>
</svg>
