<svg width="24" height="24" viewBox="0 0 24 24" fill="none" xmlns="http://www.w3.org/2000/svg">
<path d="M19.9795 8.25H4.02052C3.49415 8.25 2.99806 8.47949 2.66114 8.87891C2.32911 9.27149 2.18848 9.78516 2.27442 10.29L3.83399 19.4541C4.0586 20.7842 5.21583 21.75 6.58594 21.75H17.4141C18.7842 21.75 19.9414 20.7842 20.166 19.4551L21.7256 10.29C21.8115 9.78516 21.6709 9.27149 21.3389 8.87891C21.0019 8.4795 20.5059 8.25 19.9795 8.25ZM18.6875 19.2041C18.585 19.8105 18.0488 20.25 17.4141 20.25H6.58595C5.95118 20.25 5.41505 19.8105 5.31251 19.2031L3.75294 10.0381C3.73829 9.95019 3.77442 9.88574 3.80665 9.84667C3.83692 9.81054 3.90528 9.74999 4.02052 9.74999H19.9795C20.0947 9.74999 20.1631 9.81054 20.1934 9.84667C20.2256 9.88573 20.2617 9.95019 20.2471 10.0381L18.6875 19.2041ZM2.25001 6C2.25001 5.58594 2.58595 5.25 3.00001 5.25H21C21.4141 5.25 21.75 5.58594 21.75 6C21.75 6.41406 21.4141 6.75 21 6.75H3.00001C2.58595 6.75 2.25001 6.41406 2.25001 6ZM4.25001 3C4.25001 2.58594 4.58595 2.25 5.00001 2.25H19C19.4141 2.25 19.75 2.58594 19.75 3C19.75 3.41406 19.4141 3.75 19 3.75H5.00001C4.58595 3.75 4.25001 3.41406 4.25001 3ZM12 11.25C9.93263 11.25 8.25001 12.9326 8.25001 15C8.25001 17.0674 9.93263 18.75 12 18.75C14.0674 18.75 15.75 17.0674 15.75 15C15.75 12.9326 14.0674 11.25 12 11.25ZM12 17.25C10.7598 17.25 9.75001 16.2402 9.75001 15C9.75001 13.7598 10.7598 12.75 12 12.75C13.2402 12.75 14.25 13.7598 14.25 15C14.25 16.2402 13.2402 17.25 12 17.25Z" fill="#606060"/>
</svg>
