<svg width="24" height="24" viewBox="0 0 24 24" fill="none" xmlns="http://www.w3.org/2000/svg">
<path d="M21.6562 1.80637C20.9609 1.28196 20.083 1.11741 19.2441 1.35764L9.24414 4.21506C8.07031 4.55051 7.25 5.63742 7.25 6.85911V16.0199C6.62128 15.544 5.84741 15.2507 5 15.2507C2.93262 15.2507 1.25 16.9328 1.25 19.0007C1.25 21.0686 2.93262 22.7507 5 22.7507C7.06738 22.7507 8.75 21.0686 8.75 19.0007V11.9161L21.25 8.34464V14.0199C20.6213 13.544 19.8474 13.2507 19 13.2507C16.9326 13.2507 15.25 14.9328 15.25 17.0007C15.25 19.0686 16.9326 20.7507 19 20.7507C21.0674 20.7507 22.75 19.0686 22.75 17.0007V4.00168C22.75 3.13107 22.3516 2.33078 21.6562 1.80637ZM5 21.2507C3.75977 21.2507 2.75 20.2414 2.75 19.0007C2.75 17.76 3.75977 16.7507 5 16.7507C6.24023 16.7507 7.25 17.76 7.25 19.0007C7.25 20.2414 6.24023 21.2507 5 21.2507ZM19 19.2507C17.7598 19.2507 16.75 18.2414 16.75 17.0007C16.75 15.76 17.7598 14.7507 19 14.7507C20.2402 14.7507 21.25 15.76 21.25 17.0007C21.25 18.2414 20.2402 19.2507 19 19.2507ZM21.25 6.78439L8.75 10.3562V6.85911C8.75 6.30393 9.12305 5.80978 9.65625 5.65744L19.6562 2.80002C19.7715 2.76731 19.8877 2.75119 20.0039 2.75119C20.2705 2.75119 20.5322 2.83762 20.7529 3.00363C21.0684 3.2424 21.25 3.60568 21.25 4.00168V6.78439Z" fill="black"/>
</svg>
