<svg width="22" height="22" viewBox="0 0 22 22" fill="none" xmlns="http://www.w3.org/2000/svg">
<path d="M11 22C9.86267 22 8.9375 21.0748 8.9375 19.9375C8.9375 19.3896 8.60248 18.9096 8.0835 18.7139C7.92371 18.6541 7.76593 18.5887 7.6095 18.5185C7.10193 18.2899 6.52454 18.3923 6.13849 18.778C5.33417 19.5823 4.02631 19.5823 3.22198 18.778C2.83258 18.3886 2.61774 17.8706 2.61774 17.3198C2.61774 16.7689 2.83258 16.2509 3.22198 15.8612C3.60736 15.4755 3.70941 14.8977 3.48114 14.3898C3.41132 14.2344 3.34686 14.0776 3.28644 13.9182C3.09039 13.3975 2.61035 13.0625 2.0625 13.0625C0.925171 13.0625 0 12.1373 0 11C0 9.86267 0.925171 8.9375 2.0625 8.9375C2.61035 8.9375 3.09039 8.60248 3.28577 8.08383C3.34686 7.92236 3.41132 7.76559 3.48114 7.61118C3.70941 7.10226 3.60736 6.52454 3.22198 6.13849C2.83258 5.74908 2.61774 5.23111 2.61774 4.68024C2.61774 4.12936 2.83258 3.61139 3.22198 3.22165C4.02631 2.418 5.33417 2.41766 6.13849 3.22198C6.52454 3.60803 7.1026 3.71042 7.61017 3.48114C7.76526 3.41132 7.92303 3.34619 8.0835 3.28543C8.60248 3.09039 8.9375 2.61035 8.9375 2.0625C8.9375 0.925171 9.86267 0 11 0C12.1373 0 13.0625 0.925171 13.0625 2.0625C13.0625 2.61035 13.3975 3.09039 13.9165 3.28543C14.077 3.34619 14.2347 3.41132 14.3905 3.48148C14.8981 3.70941 15.4755 3.60803 15.8615 3.22198C16.6658 2.41766 17.9737 2.41766 18.778 3.22198C19.1674 3.61139 19.3823 4.12936 19.3823 4.68024C19.3823 5.23111 19.1674 5.74908 18.778 6.13882C18.3926 6.52454 18.2906 7.10226 18.5189 7.61017C18.5887 7.76559 18.6531 7.92236 18.7136 8.08182C18.9096 8.60248 19.3896 8.9375 19.9375 8.9375C21.0748 8.9375 22 9.86267 22 11C22 12.1373 21.0748 13.0625 19.9375 13.0625C19.3896 13.0625 18.9096 13.3975 18.7142 13.9162C18.6531 14.0776 18.5887 14.2344 18.5189 14.3888C18.2906 14.8977 18.3926 15.4755 18.778 15.8615C19.1674 16.2509 19.3823 16.7689 19.3823 17.3198C19.3823 17.8706 19.1674 18.3886 18.778 18.7784C17.9737 19.582 16.6658 19.5823 15.8615 18.778C15.4755 18.3923 14.8974 18.2899 14.3898 18.5189C14.2341 18.5887 14.0763 18.6541 13.9152 18.7146C13.3975 18.9096 13.0625 19.3896 13.0625 19.9375C13.0625 21.0748 12.1373 22 11 22ZM7.0509 17.0213C7.42822 17.0213 7.81024 17.1012 8.17413 17.2647C8.30304 17.3231 8.43396 17.3772 8.56689 17.4268C9.61157 17.8206 10.3125 18.8294 10.3125 19.9375C10.3125 20.3165 10.6207 20.625 11 20.625C11.3793 20.625 11.6875 20.3165 11.6875 19.9375C11.6875 18.8294 12.3884 17.8206 13.4318 17.4275C13.566 17.3772 13.697 17.3231 13.8252 17.265C14.8598 16.7991 16.0394 17.0119 16.8337 17.8058C17.1022 18.0737 17.5373 18.0737 17.8058 17.8058C17.9361 17.6759 18.0073 17.5034 18.0073 17.3198C18.0073 17.1361 17.9361 16.9636 17.8058 16.834C17.0123 16.0401 16.8001 14.8595 17.2647 13.8259C17.3224 13.6966 17.3775 13.564 17.4285 13.4301C17.8206 12.3884 18.829 11.6875 19.9375 11.6875C20.3168 11.6875 20.625 11.379 20.625 11C20.625 10.621 20.3168 10.3125 19.9375 10.3125C18.829 10.3125 17.8206 9.61157 17.4279 8.5679C17.3775 8.43597 17.3224 8.30338 17.2647 8.17313C16.8001 7.14053 17.0123 5.9599 17.8058 5.16632C17.9361 5.03641 18.0073 4.86386 18.0073 4.68024C18.0073 4.49661 17.9361 4.32407 17.8058 4.19449C17.5373 3.92593 17.1022 3.92627 16.8337 4.19415C16.0401 4.98807 14.8585 5.19989 13.8259 4.73529C13.6963 4.67688 13.5654 4.6225 13.4318 4.57248C12.3884 4.17972 11.6875 3.17096 11.6875 2.0625C11.6875 1.6835 11.3793 1.375 11 1.375C10.6207 1.375 10.3125 1.6835 10.3125 2.0625C10.3125 3.17096 9.61157 4.17972 8.56824 4.57248C8.43463 4.6225 8.30371 4.67688 8.1748 4.73495C7.13953 5.19989 5.9599 4.98773 5.16632 4.19415C4.89777 3.92627 4.46271 3.92627 4.19415 4.19415C4.0639 4.32407 3.99274 4.49661 3.99274 4.68024C3.99274 4.86386 4.0639 5.03641 4.19415 5.16599C4.98773 5.9599 5.19989 7.14053 4.73529 8.17413C4.67755 8.30338 4.6225 8.43597 4.57147 8.56992C4.17938 9.61157 3.17096 10.3125 2.0625 10.3125C1.68317 10.3125 1.375 10.621 1.375 11C1.375 11.379 1.68317 11.6875 2.0625 11.6875C3.17096 11.6875 4.17938 12.3884 4.57214 13.4321C4.6225 13.564 4.67755 13.6966 4.73529 13.8269C5.19989 14.8595 4.98773 16.0401 4.19415 16.8337C4.0639 16.9636 3.99274 17.1361 3.99274 17.3198C3.99274 17.5034 4.0639 17.6759 4.19415 17.8055C4.46271 18.0741 4.89777 18.0737 5.16632 17.8058C5.6806 17.2916 6.35736 17.0213 7.0509 17.0213ZM11 15.125C8.72534 15.125 6.875 13.2747 6.875 11C6.875 8.72534 8.72534 6.875 11 6.875C13.2747 6.875 15.125 8.72534 15.125 11C15.125 13.2747 13.2747 15.125 11 15.125ZM11 8.25C9.48334 8.25 8.25 9.48367 8.25 11C8.25 12.5163 9.48334 13.75 11 13.75C12.5167 13.75 13.75 12.5163 13.75 11C13.75 9.48367 12.5167 8.25 11 8.25Z" fill="#2D2D2D"/>
</svg>
