<svg width="24" height="24" viewBox="0 0 24 24" fill="none" xmlns="http://www.w3.org/2000/svg">
<path d="M22.0234 1.58073C21.5674 1.25261 20.9775 1.16227 20.4463 1.34001L16.4463 2.67302C15.7305 2.91179 15.25 3.57878 15.25 4.33318V16.2789C14.399 15.6449 13.2597 15.2492 12 15.2492C9.38086 15.2492 7.25 16.9313 7.25 18.9992C7.25 21.0671 9.38086 22.7492 12 22.7492C14.6191 22.7492 16.75 21.0671 16.75 18.9992V10.5397L21.5537 8.93866C22.2695 8.69989 22.75 8.0329 22.75 7.2785V3.00016C22.75 2.43912 22.4785 1.90836 22.0234 1.58073ZM12 21.2492C10.2383 21.2492 8.75 20.2189 8.75 18.9992C8.75 17.7795 10.2383 16.7492 12 16.7492C13.7617 16.7492 15.25 17.7795 15.25 18.9992C15.25 20.2189 13.7617 21.2492 12 21.2492ZM21.25 7.27849C21.25 7.3864 21.1816 7.48161 21.0791 7.51579L16.75 8.95866V4.33317C16.75 4.22526 16.8184 4.13005 16.9209 4.09587L20.9209 2.76286C20.9492 2.75309 20.9766 2.74968 21.001 2.74968C21.0674 2.74968 21.1182 2.77702 21.1465 2.79753C21.1846 2.82536 21.25 2.88884 21.25 3.00017L21.25 7.27849ZM1.25 4.99919C1.25 4.58513 1.58594 4.24919 2 4.24919H12C12.4141 4.24919 12.75 4.58513 12.75 4.99919C12.75 5.41325 12.4141 5.74919 12 5.74919H2C1.58594 5.74919 1.25 5.41325 1.25 4.99919ZM1.25 8.99919C1.25 8.58513 1.58594 8.24919 2 8.24919H12C12.4141 8.24919 12.75 8.58513 12.75 8.99919C12.75 9.41325 12.4141 9.74919 12 9.74919H2C1.58594 9.74919 1.25 9.41325 1.25 8.99919ZM8 13.7492H2C1.58594 13.7492 1.25 13.4132 1.25 12.9992C1.25 12.5851 1.58594 12.2492 2 12.2492H8C8.41406 12.2492 8.75 12.5851 8.75 12.9992C8.75 13.4132 8.41406 13.7492 8 13.7492Z" fill="#606060"/>
</svg>
