<svg width="14" height="13" viewBox="0 0 14 13" fill="none" xmlns="http://www.w3.org/2000/svg">
<path d="M12.8756 12.3859H12.7127L12.5259 12.2841L9.43561 9.32135C9.21951 9.44692 9.02342 9.59912 8.80537 9.72231C5.8961 11.3623 2.16293 9.82267 1.37708 6.65923L1.24927 5.88633C1.25951 5.67705 1.23561 5.45778 1.24927 5.24993C1.37805 3.29032 2.83512 1.54808 4.74976 0.971138C8.34147 -0.110927 11.9498 2.87652 11.1873 6.5232C11.0088 7.37791 10.5722 8.15367 9.98829 8.80339L13.1195 11.8189C13.2634 12.0529 13.1283 12.3078 12.8761 12.3859H12.8756ZM5.88098 1.5067C2.53903 1.75974 0.815125 5.63995 2.99708 8.16937C5.12049 10.6312 9.33025 9.87071 10.3185 6.78956C11.2298 3.94955 8.86586 1.2803 5.88098 1.50623V1.5067Z" fill="black"/>
</svg>
