<svg width="22" height="22" viewBox="0 0 22 22" fill="none" xmlns="http://www.w3.org/2000/svg">
<path d="M10.3462 2.71081V12.6982C10.3462 12.7167 10.432 12.9043 10.4535 12.9389C10.7172 13.3631 11.322 13.3631 11.5857 12.9389C11.6071 12.9043 11.693 12.7167 11.693 12.6982V2.75508C11.7919 2.72772 11.7643 2.78165 11.7896 2.81143C12.2204 3.32255 12.6979 3.96085 13.1441 4.43092C13.8524 5.17869 14.6925 4.38585 14.2786 3.63888C14.1552 3.41673 13.7496 2.97805 13.5657 2.75428C13.1602 2.26167 12.0977 0.974608 11.5956 0.718644C10.4757 0.147958 9.4378 1.62015 8.7686 2.40173C8.54707 2.6601 7.82498 3.47227 7.71689 3.72501C7.45703 4.33192 8.00282 4.92192 8.59153 4.68608C8.84756 4.58386 9.31592 3.88358 9.52519 3.63647C9.79195 3.32175 10.0763 3.02151 10.3462 2.71081ZM5.54142 5.27931C4.26742 5.39763 3.06853 6.48507 2.65689 7.72625C2.04825 9.56308 2.22149 13.4605 2.31195 15.4744C2.50128 19.7042 3.75689 20.5808 7.67397 20.7458C9.88317 20.8392 12.1545 20.8392 14.3637 20.7458C17.3754 20.6186 19.3263 20.1389 19.6804 16.5731C19.8721 14.6397 19.8131 12.3111 19.7257 10.3632C19.6544 8.77909 19.58 7.19179 18.3168 6.10756C17.9204 5.76709 16.9308 5.27609 16.4226 5.26723C15.9098 5.25838 15.5702 5.83309 15.8063 6.31362C15.9887 6.68389 16.4011 6.67664 16.7308 6.79979C18.3252 7.39624 18.3083 8.88212 18.3796 10.4074C18.4678 12.3022 18.5735 14.9922 18.2915 16.8371C17.9197 19.2712 16.3352 19.247 14.3637 19.3348C11.9521 19.4426 8.92498 19.5368 6.53871 19.2897C3.97076 19.0241 3.77069 17.8441 3.65878 15.4301C3.58135 13.7696 3.58135 12.0688 3.65878 10.4074C3.73006 8.87568 3.70783 7.39865 5.30763 6.79979C5.64644 6.67342 6.07418 6.68308 6.24512 6.28304C6.47278 5.75018 6.07494 5.23021 5.54219 5.28011L5.54142 5.27931Z" fill="#2D2D2D"/>
<path d="M5.5414 5.27958C6.07492 5.23048 6.47199 5.75046 6.24432 6.28251C6.07338 6.68255 5.64565 6.67289 5.30683 6.79927C3.70704 7.39732 3.72927 8.87515 3.65798 10.4069C3.58056 12.0683 3.58056 13.769 3.65798 15.4296C3.7699 17.8435 3.97073 19.0243 6.53791 19.2892C8.92418 19.5355 11.9513 19.4413 14.3629 19.3342C16.3337 19.2465 17.9189 19.2707 18.2907 16.8366C18.5728 14.9917 18.467 12.3017 18.3788 10.4069C18.3083 8.88159 18.3244 7.39571 16.73 6.79927C16.4003 6.67611 15.9879 6.68336 15.8055 6.3131C15.5694 5.83256 15.909 5.25785 16.4218 5.2667C16.93 5.27556 17.9197 5.76656 18.316 6.10704C19.5792 7.19126 19.6536 8.77856 19.7249 10.3626C19.8123 12.3105 19.8713 14.6392 19.6797 16.5726C19.3263 20.1384 17.3754 20.6181 14.3629 20.7453C12.1537 20.8386 9.88237 20.8386 7.67317 20.7453C3.75687 20.5803 2.50049 19.7037 2.31115 15.4739C2.2207 13.46 2.04746 9.56255 2.6561 7.72573C3.06697 6.48454 4.26662 5.3971 5.54063 5.27878L5.5414 5.27958Z" fill="#2D2D2D"/>
<path d="M10.3461 2.71081C10.0763 3.02151 9.79191 3.32175 9.52515 3.63647C9.31511 3.88358 8.84752 4.58386 8.59149 4.68608C8.00201 4.92192 7.45623 4.33192 7.71686 3.72501C7.82494 3.47227 8.54703 2.66091 8.76856 2.40173C9.43776 1.62015 10.4749 0.147958 11.5956 0.718644C12.0985 0.974608 13.1609 2.26167 13.5656 2.75428C13.7496 2.97805 14.1551 3.41673 14.2785 3.63888C14.6925 4.38585 13.8523 5.17869 13.144 4.43092C12.6979 3.96005 12.2203 3.32255 11.7895 2.81143C11.7642 2.78165 11.7926 2.72772 11.693 2.75508V12.6982C11.693 12.7167 11.6071 12.9043 11.5856 12.9389C11.3219 13.3631 10.7171 13.3631 10.4534 12.9389C10.432 12.9043 10.3461 12.7167 10.3461 12.6982V2.71081Z" fill="#2D2D2D"/>
</svg>
