<svg width="45" height="25" viewBox="0 0 45 25" fill="none" xmlns="http://www.w3.org/2000/svg">
<rect x="1.09278e-06" y="3.87436e-06" width="45" height="25" rx="12.5" fill="#2D2D2D"/>
<g clip-path="url(#clip0_4085_45)">
<path d="M21.0789 13.5028L24.3525 15.6028C24.5171 15.7082 24.7174 15.7158 24.8879 15.6224C25.0728 15.5215 25.1875 15.3214 25.1875 15.1001L25.1875 10.8999C25.1875 10.6786 25.0728 10.4785 24.8879 10.3775C24.8085 10.3341 24.7225 10.3125 24.6367 10.3125C24.5385 10.3125 24.4404 10.3408 24.3527 10.3972L21.0789 12.4972C20.9121 12.6042 20.8125 12.7922 20.8125 13C20.8125 13.2077 20.9121 13.3957 21.0789 13.5028ZM21.2814 12.8128L24.5552 10.7129C24.6176 10.6727 24.6729 10.6871 24.7081 10.7066C24.7585 10.7341 24.8125 10.7994 24.8125 10.8999L24.8125 15.1001C24.8125 15.2005 24.7585 15.2658 24.7081 15.2933C24.6893 15.3037 24.6648 15.3126 24.6365 15.3126C24.6118 15.3126 24.5842 15.3058 24.5551 15.2871L21.2814 13.1871C21.2227 13.1494 21.1875 13.0794 21.1875 13C21.1875 12.9205 21.2227 12.8506 21.2814 12.8128Z" fill="white"/>
</g>
<path d="M20.625 10.3125V15.3125C20.625 15.485 20.485 15.625 20.3125 15.625C20.14 15.625 20 15.485 20 15.3125V10.3125C20 10.14 20.14 10 20.3125 10C20.485 10 20.625 10.14 20.625 10.3125Z" fill="white"/>
<defs>
<clipPath id="clip0_4085_45">
<rect width="6" height="6" fill="white" transform="translate(26 16) rotate(-180)"/>
</clipPath>
</defs>
</svg>
