<?xml version="1.0" encoding="UTF-8"?>
<svg id="Capa_1" xmlns="http://www.w3.org/2000/svg" version="1.1" viewBox="0 0 1024 1024">
  <!-- Generator: Adobe Illustrator 29.8.4, SVG Export Plug-In . SVG Version: 2.1.1 Build 6)  -->
  <defs>
    <style>
      .st0 {
        fill: #fff;
      }
    </style>
  </defs>
  <path class="st0" d="M807.27,654.03c-.82,3.79.5,2.6,2.09,3.63,11.06,7.1,23.34,11.82,34.26,19.46,79.13,55.37,31.83,110.67-35.77,141.21-145.68,65.81-432.05,63.88-576.8-4.38-44.62-21.04-114.88-70.11-69.79-124.12,16.98-20.34,42.23-29.76,64.34-43.15-12.69-8.07-26.93-13.72-38.93-22.95-52.71-40.5-53.43-89.84,3.26-126.81,92.38-60.25,274.22-67.65,381.98-61.3,80.41,4.74,250.16,30.6,301.2,97.96,41.63,54.95-17.65,102.3-65.84,120.45ZM177.33,522.61c-44.22,45.97,8.64,88.1,49.32,108.39,141.15,70.43,439.4,76.51,581.72,8.63,75.16-35.85,93.78-86.7,13.03-132.53-109.42-62.1-304.09-69.64-427.12-56.73-61.08,6.41-173.34,26.91-216.95,72.24ZM241.51,654.28c-38.18,17.5-109.99,48.22-69.6,99.89,41.22,52.73,155.44,79.09,219.32,88.6,121.48,18.08,330.45,14.29,437.71-50.59,86.5-52.32,26.27-103.21-38.91-130.01-112.5,39.28-238.52,45.37-356.66,34.19-65.34-6.18-130.54-18.97-191.85-42.08Z"/>
  <path class="st0" d="M863.72,312.93c-72.45,69.34-297.33,67.51-392.87,59.21-72.33-6.29-233.45-32.62-280.26-91.2-57.28-71.67,70.16-111.81,119.75-123.04,140.26-31.77,402.38-23.83,526.12,55.55,36.38,23.34,67.11,61.35,27.26,99.49ZM443.61,152.69c-64.27,2.69-180.98,17.25-231.79,58.21-65.17,52.53,39.65,97.37,80.96,111.22,135.84,45.52,371.73,56.64,507.18,9.33,48.31-16.88,100.27-50.17,43.92-97.73-85.14-71.86-292.32-85.54-400.26-81.03Z"/>
  <path class="st0" d="M107.92,633.19c7.57-1.97,10.86,2.45,7.71,9.39-1.96,4.31-11.61,8.72-15.47,12.23-79.68,72.59-.71,146.33,68.97,181.97,7.92,4.05,26.39,9.45,32.01,13.61,4.34,3.21,3.41,8.8-1.04,10.3-7.48,2.53-36.49-12.55-44.56-16.83-66.01-35.07-141.95-108.74-78.12-184.09,4.26-5.03,25.46-25.26,30.5-26.57Z"/>
  <path class="st0" d="M923.18,665.66c8.24-5.19,20.56,11.98,24.87,17.82,36.59,49.56,13.81,95.74-31.12,128.27-7.36,5.33-46.34,30.26-52.83,28.83-5.37-1.18-8.19-6.03-4.02-10.75,2.72-3.08,28.23-14.49,35.02-18.74,40.36-25.25,80.86-70.26,44.8-117.84-3.77-4.97-26.1-21.68-16.72-27.59Z"/>
  <path class="st0" d="M138.67,303.85c6.29-2.03,20.34,16.28,25.92,21,23.87,20.2,59.73,38.75,89.12,49.37,11.29,4.08,33.94,8.24,42.42,12.97,1.77.99,3.53,1.8,4.22,3.91,2.82,15.1-32.18,1.02-38.08-1-33.13-11.37-77.62-34.31-104.28-57.01-2.85-2.43-20.32-19.5-21.13-21.24-1.45-3.1-1.63-6.33,1.82-8Z"/>
  <path class="st0" d="M95.08,248.11c-16.65,3.69-11.08-11.42-7.56-21.41,11.14-31.63,47.61-56.16,76.73-69.9,6.47-3.05,36.53-17.6,41.14-11.23,3.75,11.34-10.35,10.56-17.68,13.51-38.81,15.64-87.65,42.96-92.63,89.02Z"/>
  <path class="st0" d="M951.03,561.51c11.64-5.02,9.76,8.81,8.92,16.28-3.96,35.58-43.59,70.33-73.4,86.26-8.69,4.64-18.35,8.3-14.25-6.11,29.47-15.15,63.8-37.27,74.21-70.79,2.86-9.22,1.45-17.01,4.51-25.65Z"/>
  <path class="st0" d="M125.19,324.34c16.51,17.08,37.58,29.94,57.33,42.91,1.04,18.99-26.76-1.77-33.98-6.8-17.05-11.87-39.02-31.87-49.67-49.71-2.26-3.79-9.79-16.83-7.75-20.05,8.16-12.91,18.83,15.11,22.37,20.09,2.61,3.67,8.46,10.21,11.69,13.56Z"/>
  <path class="st0" d="M877.75,170.53c3.38-3.36,8.45-.63,11.85,1.19,13.5,7.19,58.73,45.52,60.81,59.91.56,3.86-1.96,6.28-5.55,7.01-5.95.55-13.47-14.67-17.82-19.64-5.05-5.78-12.95-13.72-18.73-18.74-5.62-4.88-32.19-21.65-32.3-25.78-.02-.94,1.01-3.2,1.74-3.93Z"/>
  <path class="st0" d="M982.76,556.49c14.39-4.06,7.88,30.31,5.44,38.15-3.11,10.02-20.3,39.69-29.46,43.92-4.62,2.14-12.58-.98-11.17-6.24.45-1.66,15.29-16.04,18.41-20.81,5.9-9.04,13.69-27.54,14.04-38.24.18-5.53-4.71-14.68,2.74-16.78Z"/>
  <path class="st0" d="M921.36,237.01c9.85-4.78,13,1.8,17.02,9.73,11.96,23.57,6.17,50.77-14.87,66.5-16.93-3.74,2.97-18.06,6.74-27.44,8.12-20.17-3.57-31.11-8.9-48.79Z"/>
  <path class="st0" d="M292.04,880.85c.97.93,2.03,4.02,1.93,5.35l-2.21,4.18c-3.22,2.44-7.66,1.61-11.34,1.29-6.77-.58-57.46-14.84-59.41-17.96-1.47-5.37.59-11.59,6.93-11.18,9.02,7.81,59.94,14.33,64.1,18.32Z"/>
  <path class="st0" d="M790.42,129.58c6-1.96,66.76,21.42,70.74,26.59,2.74,3.57,1.14,7.6-2.93,8.8-6.61,1.94-22.56-8.89-29.83-11.89-12.2-5.03-24.52-9.85-37.34-13.16-3.8-1.6-5.22-8.83-.64-10.33Z"/>
  <path class="st0" d="M914.24,470.05c5.19-1.52,27.86,18.05,32.35,22.65,4.04,4.14,29.21,32.36,9.84,29.37-3.79-.58-18.92-21.13-24.48-26.14-7.45-6.72-30.23-16.26-17.71-25.89Z"/>
  <path class="st0" d="M909.9,233.66c-4.03,4.29-21.89-16.69-25.29-19.49-4.9-4.04-30.54-19.79-31.49-21.44-1.94-3.39,2.37-8.33,6.7-7.7,8.47,1.25,46.36,30.73,49.2,38.94,1.15,3.33,1.12,6.27.88,9.69Z"/>
  <path class="st0" d="M838.45,440.8c3.24-5.16,23.55,4,28.58,6,4.37,1.74,26.73,11.84,28.34,14.02,3.49,4.72,1.9,9-4.19,9.24-6.11.24-25.95-10.85-33.43-13.97-8.25-3.44-22.59-3.41-19.3-15.28Z"/>
  <path class="st0" d="M922.37,504.69c4.16,3.82,20.35,22.48,19.37,27.26-.98,4.81-5.25,6.82-8.8,2.09s-5.73-9.79-9.96-14.48c-3.55-3.94-20.65-16.62-21.06-18.14-1.06-3.87,3.65-7.2,6.88-6.72,1.47.21,11.65,8.24,13.56,10Z"/>
  <path class="st0" d="M116.69,280.69c-4.24-11.26-6.43-24.41-5.1-36.46.59-5.4,1.37-8.3,7.36-8.84l5.01,3.91c-1.07,7.11-1.71,15.77-.98,22.89.87,8.54,10.06,20.77-6.29,18.5Z"/>
  <path class="st0" d="M836.46,178.16c-2.74.62-5.43,0-8.1-.61-3.71-.86-36.39-12.9-37.99-14.14-5.28-4.09-2.86-7.53,3.03-8.08,5.85-.54,39.94,12.68,43.37,17.21l-.31,5.63Z"/>
  <path class="st0" d="M231.94,391.89l-1.27,7.28c-2.03,2.45-4.1,2.5-7.05,2.03-3.68-.59-26.83-11.72-28.15-14.37-9.57-19.19,31.53,3.58,36.48,5.06Z"/>
  <path class="st0" d="M616.04,535.7c11.45,8.93,15.55,25.22,3.89,36.07-31.3,29.11-160.11,27.51-190.07-3.05-18.15-18.52-3.74-34.44,15.13-43.17,37.99-17.57,137.15-16.27,171.04,10.16ZM439.63,560.58c25.3,26.87,127.6,24.72,159.56,9.99,13.59-6.26,21.45-18.14,6.6-28.7-28.96-20.61-110.74-20.78-143.91-10.85-12.67,3.79-37.07,13.83-22.25,29.57Z"/>
  <path class="st0" d="M438,232.6c22.67-25.23,119.99-17.38,150.94-7.89,29.54,9.06,59.98,36.98,15.96,53.42-36.68,13.7-110.12,9.98-146.65-4.19-17.01-6.6-37.12-22.57-20.25-41.34ZM609.63,247.17c-5.53-6.91-25.88-12.94-34.65-15.01-31.33-7.43-68.33-9.21-99.82-2.3-37.15,8.14-40.05,23.99-2.76,36.45,28.04,9.38,68.51,11.82,97.79,8.07,10.21-1.3,53.66-9.42,39.43-27.21Z"/>
  <path class="st0" d="M541.21,546.97c8.75,10.45-16.64,18.57-24.72,7.59-10-13.59,18.85-14.6,24.72-7.59Z"/>
  <path class="st0" d="M525.04,240.51c7.4-1.05,23.41,2.82,17.5,12.74-5.49,6.97-28.88,2.82-26.29-6.58,1.32-3.84,4.93-5.61,8.79-6.16Z"/>
</svg>