<svg width="45" height="25" viewBox="0 0 45 25" fill="none" xmlns="http://www.w3.org/2000/svg">
<rect x="1.09278e-06" y="3.87436e-06" width="45" height="25" rx="12.5" fill="#2D2D2D"/>
<g clip-path="url(#clip0_4085_46)">
<path d="M24.9211 12.4972L21.6475 10.3973C21.4829 10.2918 21.2826 10.2842 21.1121 10.3776C20.9272 10.4785 20.8125 10.6786 20.8125 10.8999L20.8125 15.1001C20.8125 15.3214 20.9272 15.5215 21.1121 15.6225C21.1915 15.6659 21.2775 15.6875 21.3633 15.6875C21.4615 15.6875 21.5596 15.6592 21.6473 15.6028L24.9211 13.5028C25.0879 13.3958 25.1875 13.2078 25.1875 13C25.1875 12.7923 25.0879 12.6043 24.9211 12.4972ZM24.7186 13.1872L21.4448 15.2871C21.3824 15.3273 21.3272 15.3129 21.2919 15.2934C21.2415 15.2659 21.1875 15.2006 21.1875 15.1001L21.1875 10.8999C21.1875 10.7995 21.2415 10.7342 21.2919 10.7067C21.3107 10.6963 21.3352 10.6874 21.3635 10.6874C21.3882 10.6874 21.4158 10.6942 21.4449 10.7129L24.7186 12.8129C24.7773 12.8506 24.8125 12.9206 24.8125 13C24.8125 13.0795 24.7773 13.1495 24.7186 13.1872Z" fill="white"/>
</g>
<path d="M25.375 15.6875L25.375 10.6875C25.375 10.515 25.515 10.375 25.6875 10.375C25.86 10.375 26 10.515 26 10.6875L26 15.6875C26 15.86 25.86 16 25.6875 16C25.515 16 25.375 15.86 25.375 15.6875Z" fill="white"/>
<defs>
<clipPath id="clip0_4085_46">
<rect width="6" height="6" fill="white" transform="translate(20 10)"/>
</clipPath>
</defs>
</svg>
